<svg width="32" height="32" viewBox="0 0 32 32" fill="none" xmlns="http://www.w3.org/2000/svg">
<g clip-path="url(#clip0_1992_3300)">
<circle cx="16" cy="16" r="16" fill="#FF4848"/>
<path d="M12.3475 23.9073C12.2776 23.9684 12.107 24 11.8358 24H8.45508C8.09133 24 7.94336 23.8481 8.0194 23.5425L10.7507 12.3427C10.8842 11.7944 11.0939 11.258 11.3836 10.7314C11.6693 10.2068 12.0413 9.7414 12.4975 9.33711C12.9537 8.93282 13.5045 8.60742 14.1519 8.36485C14.7972 8.12227 15.5432 8 16.3837 8H23.626C23.8171 8 23.9322 8.02761 23.9753 8.08086C24.0164 8.13411 24.0062 8.28793 23.9445 8.54826L23.3156 11.1318C23.2663 11.331 23.2026 11.4631 23.1225 11.5321C23.0423 11.6011 22.9149 11.6347 22.7402 11.6347H16.8544C16.5358 11.6347 16.2707 11.6761 16.0611 11.7609C15.8494 11.8437 15.6809 11.9463 15.5555 12.0685C15.4302 12.1908 15.3315 12.3269 15.2637 12.4807C15.1959 12.6326 15.1424 12.7864 15.1054 12.9382L14.7622 14.3562H21.0262C21.2174 14.3562 21.3325 14.3878 21.3736 14.4469C21.4147 14.5081 21.4023 14.6698 21.3386 14.9281L20.7591 17.3065C20.6748 17.6556 20.4816 17.8331 20.1795 17.8331H13.9155L12.5201 23.5425C12.4749 23.7239 12.4174 23.8462 12.3475 23.9073Z" fill="white"/>
</g>
<defs>
<clipPath id="clip0_1992_3300">
<rect width="32" height="32" rx="16" fill="white"/>
</clipPath>
</defs>
</svg>
