<svg width="280" height="36" viewBox="0 0 280 36" fill="none" xmlns="http://www.w3.org/2000/svg">
<g filter="url(#filter0_d_691_5290)">
<path d="M6 14C6 9.58172 9.58172 6 14 6H22C26.4183 6 30 9.58172 30 14V22C30 26.4183 26.4183 30 22 30H14C9.58172 30 6 26.4183 6 22V14Z" fill="white" fill-opacity="0.08"/>
<path d="M19.5541 22L15.5 18L19.5541 14L20.5 14.9333L17.3919 18L20.5 21.0667L19.5541 22Z" fill="white" fill-opacity="0.24"/>
</g>
<circle cx="132" cy="18" r="4" fill="#F4F4F4"/>
<circle cx="148" cy="18" r="4" fill="#7F7F7F"/>
<g filter="url(#filter1_d_691_5290)">
<path d="M250 14C250 9.58172 253.582 6 258 6H266C270.418 6 274 9.58172 274 14V22C274 26.4183 270.418 30 266 30H258C253.582 30 250 26.4183 250 22V14Z" fill="white" fill-opacity="0.16"/>
<path d="M262.608 18L259.5 14.9333L260.446 14L264.5 18L260.446 22L259.5 21.0667L262.608 18Z" fill="white"/>
</g>
<defs>
<filter id="filter0_d_691_5290" x="0" y="0" width="36" height="36" filterUnits="userSpaceOnUse" color-interpolation-filters="sRGB">
<feFlood flood-opacity="0" result="BackgroundImageFix"/>
<feColorMatrix in="SourceAlpha" type="matrix" values="0 0 0 0 0 0 0 0 0 0 0 0 0 0 0 0 0 0 127 0" result="hardAlpha"/>
<feOffset/>
<feGaussianBlur stdDeviation="3"/>
<feColorMatrix type="matrix" values="0 0 0 0 0.133333 0 0 0 0 0.133333 0 0 0 0 0.133333 0 0 0 0.2 0"/>
<feBlend mode="normal" in2="BackgroundImageFix" result="effect1_dropShadow_691_5290"/>
<feBlend mode="normal" in="SourceGraphic" in2="effect1_dropShadow_691_5290" result="shape"/>
</filter>
<filter id="filter1_d_691_5290" x="244" y="0" width="36" height="36" filterUnits="userSpaceOnUse" color-interpolation-filters="sRGB">
<feFlood flood-opacity="0" result="BackgroundImageFix"/>
<feColorMatrix in="SourceAlpha" type="matrix" values="0 0 0 0 0 0 0 0 0 0 0 0 0 0 0 0 0 0 127 0" result="hardAlpha"/>
<feOffset/>
<feGaussianBlur stdDeviation="3"/>
<feColorMatrix type="matrix" values="0 0 0 0 0.133333 0 0 0 0 0.133333 0 0 0 0 0.133333 0 0 0 0.2 0"/>
<feBlend mode="normal" in2="BackgroundImageFix" result="effect1_dropShadow_691_5290"/>
<feBlend mode="normal" in="SourceGraphic" in2="effect1_dropShadow_691_5290" result="shape"/>
</filter>
</defs>
</svg>
