<svg width="16" height="16" viewBox="0 0 16 16" fill="none" xmlns="http://www.w3.org/2000/svg">
<path fill-rule="evenodd" clip-rule="evenodd" d="M6.34032 1C6.34032 1 6.50553 2.90377 4.90852 4.80753C3.47672 6.54812 1.93478 7.90795 2.70575 10.682C3.47672 13.4561 5.89977 13.9456 5.89977 13.9456C5.89977 13.9456 5.23894 11.4435 7.22143 9.48536C7.22143 9.48536 7.2765 13.1841 10.2502 14C10.2502 14 13.5544 12.5314 13.4993 9.37657C13.4443 6.22176 11.7371 4.58996 11.7371 4.58996C11.7371 4.58996 11.1864 6.27615 9.20392 7.20084C9.20392 7.20084 9.75461 5.841 9.20392 3.88285C8.7083 1.92469 6.34032 1 6.34032 1Z" fill="#FF4848"/>
</svg>
