<svg width="12" height="14" viewBox="0 0 12 14" fill="none" xmlns="http://www.w3.org/2000/svg">
<path fill-rule="evenodd" clip-rule="evenodd" d="M4 0H8V1.33397H4V0ZM6.66634 4.66895V8.67085H5.33301V4.66895H6.66634ZM10.6867 4.25536L11.6333 3.30824C11.3467 2.96808 11.0333 2.64793 10.6933 2.36779L9.74667 3.31491C8.71333 2.48785 7.41333 1.99428 6 1.99428C2.68667 1.99428 0 4.68223 0 7.99714C0 11.3121 2.68 14 6 14C9.32 14 12 11.3121 12 7.99714C12 6.5898 11.5067 5.28919 10.6867 4.25536ZM1.33301 8.00385C1.33301 10.5851 3.41967 12.6727 5.99967 12.6727C8.57967 12.6727 10.6663 10.5851 10.6663 8.00385C10.6663 5.42262 8.57967 3.33496 5.99967 3.33496C3.41967 3.33496 1.33301 5.42262 1.33301 8.00385Z" fill="#7F7F7F"/>
</svg>
