<svg width="10" height="12" viewBox="0 0 10 12" fill="none" xmlns="http://www.w3.org/2000/svg">
<path fill-rule="evenodd" clip-rule="evenodd" d="M3.21382 0C3.21382 0 3.35207 1.75732 2.0156 3.51464C0.817382 5.12134 -0.473007 6.37657 0.172187 8.93724C0.817381 11.4979 2.84514 11.9498 2.84514 11.9498C2.84514 11.9498 2.29211 9.64017 3.95118 7.83264C3.95118 7.83264 3.99727 11.2469 6.48588 12C6.48588 12 9.25099 10.6444 9.20491 7.73222C9.15882 4.82008 7.73018 3.31381 7.73018 3.31381C7.73018 3.31381 7.26933 4.87029 5.61025 5.72385C5.61025 5.72385 6.07111 4.46862 5.61025 2.66109C5.19549 0.853556 3.21382 0 3.21382 0Z" fill="#FFB11B"/>
</svg>
