<svg width="24" height="24" viewBox="0 0 24 24" fill="none" xmlns="http://www.w3.org/2000/svg">
<path fill-rule="evenodd" clip-rule="evenodd" d="M2.09961 11.2H21.8996V22.9333C21.8996 23.5224 21.4071 24 20.7996 24H3.19961C2.5921 24 2.09961 23.5224 2.09961 22.9333V11.2Z" fill="#EAEAEA"/>
<rect x="1" y="6.93335" width="22" height="4.26667" rx="1.06667" fill="#EAEAEA"/>
<rect x="9.7998" y="6.93335" width="4.4" height="17.0667" fill="#FF003C"/>
<rect opacity="0.23" x="2.09961" y="11.2" width="19.8" height="2.13333" fill="#004467"/>
<path fill-rule="evenodd" clip-rule="evenodd" d="M13.7224 0.645812C15.4408 -0.484872 17.8093 -0.0924309 19.0125 1.52235C20.2158 3.13714 19.7982 5.36278 18.0797 6.49346C17.2853 7.01618 16.3618 7.32043 15.3093 7.4062C14.3201 7.48682 9.67947 7.48682 8.69027 7.4062C7.63777 7.32043 6.7143 7.01618 5.91987 6.49346C4.20144 5.36278 3.78381 3.13714 4.98707 1.52235C6.19033 -0.0924309 8.55882 -0.484872 10.2772 0.645812C10.9929 1.11671 11.5671 1.7407 11.9998 2.51781C12.4325 1.7407 13.0067 1.11671 13.7224 0.645812ZM16.8348 4.8227C17.5712 4.33813 17.7502 3.38428 17.2345 2.69223C16.7189 2.00018 15.7038 1.83199 14.9673 2.31657C14.1387 2.86177 13.5742 3.81507 13.324 5.26527C14.8598 5.54033 16.0062 5.3679 16.8348 4.8227ZM6.76506 2.69223C7.28074 2.00018 8.29581 1.83199 9.03228 2.31657C9.86088 2.86177 10.4254 3.81507 10.6756 5.26527C9.13982 5.54033 7.99344 5.3679 7.16483 4.8227C6.42837 4.33813 6.24938 3.38428 6.76506 2.69223Z" fill="#EAEAEA"/>
</svg>
