<svg width="102" height="48" viewBox="0 0 102 48" fill="none" xmlns="http://www.w3.org/2000/svg">
<path d="M85.5239 30.5114C88.3623 30.5114 90.1268 29.3591 91.124 28.3603C92.2748 27.2078 92.8118 25.825 92.8118 24.903H89.513C89.2061 25.9786 88.0554 27.592 85.5239 27.592C82.9923 27.592 81.2278 25.9018 81.2278 23.4433C81.2278 20.9848 82.9923 19.2946 85.5239 19.2946C87.902 19.2946 89.2061 20.7543 89.513 21.9836H93.6557L96.264 16.6825H96.6475V21.9836H98.412L101.941 14.7626H91.8912V19.2186H91.5077C90.6637 17.7588 88.6692 16.3759 85.5239 16.3759C80.9209 16.3759 78.0059 19.2186 78.0059 23.4441C78.0059 27.6696 81.1511 30.5121 85.5239 30.5121V30.5114Z" fill="#00C78B"/>
<path d="M7.5556 16.3705C5.3913 16.3705 3.53698 17.0123 2.19562 18.2236C0.800808 19.4816 0.0654297 21.2758 0.0654297 23.4107C0.0654297 25.5455 0.800808 27.3397 2.19562 28.5977C3.53852 29.8091 5.3913 30.4508 7.5556 30.4508C10.4522 30.4508 12.212 29.3038 13.1774 28.3424C14.339 27.1861 14.8575 25.7892 14.8575 24.9154V24.8526H11.5727L11.5603 24.8991C11.5533 24.9263 10.8047 27.5345 7.5556 27.5345C5.01704 27.5345 3.31225 25.8761 3.31225 23.4107C3.31225 20.9452 5.01704 19.2868 7.5556 19.2868C10.8047 19.2868 11.5525 21.8958 11.5603 21.9222L11.5727 21.9688H14.8575V21.9059C14.8575 21.0337 14.3375 19.6353 13.1774 18.479C12.212 17.5175 10.4537 16.3705 7.5556 16.3705Z" fill="#00C78B"/>
<path d="M16.437 30.1769H19.5754V19.5049H26.7703V30.1776H29.9086V16.6444H16.437V30.1776V30.1769Z" fill="#00C78B"/>
<path d="M44.4517 18.2236C43.1088 17.0123 41.256 16.3705 39.0918 16.3705C36.9274 16.3705 35.0747 17.0123 33.7317 18.2236C32.3385 19.4816 31.6016 21.2758 31.6016 23.4107C31.6016 25.5455 32.3369 27.3397 33.7317 28.5977C35.0747 29.8091 36.9274 30.4508 39.0918 30.4508C41.256 30.4508 43.1088 29.8091 44.4517 28.5977C45.845 27.3397 46.582 25.5455 46.582 23.4107C46.582 21.2758 45.8465 19.4816 44.4517 18.2236ZM43.3351 23.4107C43.3351 25.8761 41.6303 27.5345 39.0918 27.5345C36.5531 27.5345 34.8483 25.8761 34.8483 23.4107C34.8483 20.9452 36.5531 19.2868 39.0918 19.2868C41.6303 19.2868 43.3351 20.9452 43.3351 23.4107Z" fill="#00C78B"/>
<path d="M64.1736 19.5049H69.3677V30.1754L72.5061 30.2041V19.5049H77.7003V16.6444H64.1729V19.5049H64.1736Z" fill="#00C78B"/>
<path d="M56.9101 16.3705C54.4646 16.3705 52.8062 17.3514 51.7725 18.9329H51.4998V16.6421H48.3467V35.2374H51.4998V27.8759H51.7725C52.8055 29.4575 54.4637 30.2755 56.9101 30.2755C60.797 30.2755 63.5967 27.4126 63.5967 23.3765C63.5967 19.3403 60.7962 16.3689 56.9101 16.3689V16.3705ZM56.0678 27.3304C53.5137 27.3304 51.7997 25.8583 51.7997 23.4052C51.7997 20.9522 53.5114 19.3155 56.0678 19.3155C58.6242 19.3155 60.336 20.8699 60.336 23.3229C60.336 25.776 58.5955 27.3304 56.0678 27.3304Z" fill="#00C78B"/>
</svg>
