<svg width="120" height="32" viewBox="0 0 120 32" fill="none" xmlns="http://www.w3.org/2000/svg">
<rect width="32" height="32" rx="3" fill="#CCF3DE"/>
<path d="M17 15H22V17H17V22H15V17H10V15H15V10H17V15Z" fill="#00A876"/>
<path d="M57.4434 11.0264V21H55.4746V13.2959L53.1094 14.0479V12.4961L57.2314 11.0264H57.4434ZM67.4922 19.4619V21H60.6836V19.6875L63.9033 16.2354C64.2269 15.8753 64.4821 15.5586 64.6689 15.2852C64.8558 15.0072 64.9902 14.7588 65.0723 14.54C65.1589 14.3167 65.2021 14.1048 65.2021 13.9043C65.2021 13.6035 65.152 13.346 65.0518 13.1318C64.9515 12.9131 64.8034 12.7445 64.6074 12.626C64.416 12.5075 64.179 12.4482 63.8965 12.4482C63.5957 12.4482 63.3359 12.5212 63.1172 12.667C62.903 12.8128 62.7389 13.0156 62.625 13.2754C62.5156 13.5352 62.4609 13.8291 62.4609 14.1572H60.4854C60.4854 13.5648 60.6266 13.0225 60.9092 12.5303C61.1917 12.0335 61.5905 11.6393 62.1055 11.3477C62.6204 11.0514 63.2311 10.9033 63.9375 10.9033C64.6348 10.9033 65.2227 11.0173 65.7012 11.2451C66.1842 11.4684 66.5488 11.792 66.7949 12.2158C67.0456 12.6351 67.1709 13.1364 67.1709 13.7197C67.1709 14.0479 67.1185 14.3691 67.0137 14.6836C66.9089 14.9935 66.7585 15.3034 66.5625 15.6133C66.3711 15.9186 66.1387 16.2285 65.8652 16.543C65.5918 16.8574 65.2887 17.1833 64.9561 17.5205L63.2266 19.4619H67.4922Z" fill="#00A876"/>
<rect x="88" width="32" height="32" rx="3" fill="#F4F4F4"/>
<path d="M98 15H110V17H98V15Z" fill="#D8D8D8"/>
</svg>
