<svg width="328" height="108" viewBox="0 0 328 108" fill="none" xmlns="http://www.w3.org/2000/svg">
<rect width="48" height="48" rx="24" fill="url(#paint0_linear_0_74)"/>
<path d="M22.3437 26.1343C21.8889 26.5206 21.9233 27.2328 22.4132 27.5735L28.4847 31.7957C29.2882 32.213 29.8681 31.9969 30.0682 31.0935L32.9344 18.3804C33.2279 17.273 32.4859 16.7708 31.7173 17.0992L14.8871 23.2077C13.7383 23.6414 13.745 24.2447 14.6777 24.5135L18.2368 25.5591C18.7214 25.7014 19.2434 25.6358 19.6777 25.3779L28.9956 19.8446C29.4677 19.5752 29.9009 19.7201 29.5453 20.0171L22.3437 26.1343Z" fill="white"/>
<rect x="60" width="48" height="48" rx="24" fill="#3B579D"/>
<rect x="76" y="16" width="16" height="16" rx="2" fill="white"/>
<rect x="120" width="48" height="48" rx="24" fill="#4680C2"/>
<path d="M152.541 18.8464C152.68 18.3585 152.541 18 151.879 18H149.691C149.135 18 148.879 18.3097 148.739 18.6512C148.739 18.6512 147.627 21.5054 146.051 23.3594C145.541 23.8961 145.309 24.0668 145.031 24.0668C144.892 24.0668 144.69 23.8961 144.69 23.4082V18.8464C144.69 18.2609 144.529 18 144.065 18H140.627C140.279 18 140.07 18.2717 140.07 18.5293C140.07 19.0843 140.858 19.2123 140.939 20.7736V24.1645C140.939 24.9079 140.812 25.0427 140.534 25.0427C139.792 25.0427 137.988 22.1757 136.917 18.8952C136.708 18.2576 136.497 18 135.938 18H133.75C133.125 18 133 18.3097 133 18.6512C133 19.2611 133.742 22.2861 136.454 26.2868C138.262 29.019 140.809 30.5 143.127 30.5C144.518 30.5 144.69 30.1711 144.69 29.6044V27.5395C144.69 26.8816 144.822 26.7503 145.262 26.7503C145.587 26.7503 146.143 26.921 147.441 28.2384C148.925 29.7996 149.169 30.5 150.004 30.5H152.192C152.817 30.5 153.13 30.1711 152.949 29.5219C152.752 28.8749 152.044 27.9362 151.104 26.8235C150.594 26.1892 149.829 25.5062 149.597 25.1646C149.273 24.7255 149.365 24.5303 149.597 24.1401C149.597 24.1401 152.263 20.1881 152.541 18.8464Z" fill="white"/>
<g clip-path="url(#clip0_0_74)">
<circle cx="204" cy="24" r="24" fill="url(#paint1_radial_0_74)"/>
<circle cx="204" cy="24" r="24" fill="url(#paint2_radial_0_74)"/>
<circle cx="204" cy="24" r="24" fill="url(#paint3_radial_0_74)"/>
<circle cx="204" cy="24" r="24" fill="url(#paint4_radial_0_74)"/>
<rect x="196" y="16" width="16" height="16" rx="2" fill="white"/>
</g>
<rect x="240" width="48" height="48" rx="24" fill="white"/>
<g clip-path="url(#clip1_0_74)">
<path d="M265.929 25.9286C264.357 27.55 264.243 29.5714 264.107 34C268.236 34 271.086 33.9857 272.557 32.5571C273.986 31.0857 274 28.1 274 24.1071C269.571 24.25 267.55 24.3571 265.929 25.9286ZM254 24.1071C254 28.1 254.014 31.0857 255.443 32.5571C256.914 33.9857 259.764 34 263.893 34C263.75 29.5714 263.643 27.55 262.071 25.9286C260.45 24.3571 258.429 24.2429 254 24.1071ZM263.893 14C259.771 14 256.914 14.0143 255.443 15.4429C254.014 16.9143 254 19.9 254 23.8929C258.429 23.75 260.45 23.6429 262.071 22.0714C263.643 20.45 263.757 18.4286 263.893 14ZM265.929 22.0714C264.357 20.45 264.243 18.4286 264.107 14C268.236 14 271.086 14.0143 272.557 15.4429C273.986 16.9143 274 19.9 274 23.8929C269.571 23.75 267.55 23.6429 265.929 22.0714Z" fill="#2C3036"/>
<path d="M274 24.1071V23.8929C269.571 23.75 267.55 23.6429 265.929 22.0714C264.357 20.45 264.243 18.4286 264.107 14H263.893C263.75 18.4286 263.643 20.45 262.071 22.0714C260.45 23.6429 258.429 23.7571 254 23.8929V24.1071C258.429 24.25 260.45 24.3571 262.071 25.9286C263.643 27.55 263.757 29.5714 263.893 34H264.107C264.25 29.5714 264.357 27.55 265.929 25.9286C267.55 24.3571 269.571 24.2429 274 24.1071Z" fill="white"/>
</g>
<rect y="60" width="48" height="48" rx="24" fill="#222222"/>
<path fill-rule="evenodd" clip-rule="evenodd" d="M28.3403 81.2194C29.6536 82.142 31.2625 82.6849 33.0001 82.6849V79.3986C32.6713 79.3988 32.3433 79.365 32.0215 79.298V81.8848C30.284 81.8848 28.6753 81.3419 27.3617 80.4193V87.1255C27.3617 90.4803 24.5944 93.1997 21.181 93.1997C19.9074 93.1997 18.7236 92.8213 17.7402 92.1723C18.8626 93.3001 20.4278 93.9998 22.1594 93.9998C25.573 93.9998 28.3404 91.2804 28.3404 87.9255L28.3403 81.2194ZM29.5475 77.904C28.8763 77.1834 28.4357 76.2521 28.3403 75.2225V74.7998H27.4129C27.6463 76.1084 28.4425 77.2264 29.5475 77.904ZM19.8992 89.598C19.5242 89.1148 19.3215 88.5237 19.3224 87.9159C19.3224 86.3815 20.5882 85.1375 22.1498 85.1375C22.4408 85.1373 22.73 85.1812 23.0074 85.2677V81.908C22.6833 81.8644 22.3562 81.8459 22.0292 81.8527V84.4677C21.7517 84.3812 21.4623 84.3373 21.1712 84.3375C19.6096 84.3375 18.344 85.5815 18.344 87.116C18.344 88.201 18.9766 89.1405 19.8992 89.598Z" fill="#EE1D52"/>
<path fill-rule="evenodd" clip-rule="evenodd" d="M27.3616 80.4193C28.6752 81.3419 30.2839 81.8848 32.0214 81.8848V79.298C31.0516 79.095 30.193 78.5969 29.5474 77.904C28.4424 77.2264 27.6462 76.1084 27.4128 74.7998H24.9769V87.9254C24.9714 89.4555 23.7078 90.6944 22.1496 90.6944C21.2313 90.6944 20.4155 90.2643 19.8989 89.598C18.9764 89.1405 18.3437 88.201 18.3437 87.116C18.3437 85.5815 19.6094 84.3375 21.171 84.3375C21.4701 84.3375 21.7585 84.3833 22.029 84.4677V81.8527C18.6755 81.9207 15.9785 84.6136 15.9785 87.9255C15.9785 89.5787 16.6502 91.0774 17.7401 92.1724C18.7235 92.8214 19.9073 93.1998 21.1809 93.1998C24.5943 93.1998 27.3616 90.4803 27.3616 87.1256V80.4193Z" fill="white"/>
<path fill-rule="evenodd" clip-rule="evenodd" d="M32.0214 79.2982V78.5987C31.1468 78.6 30.2894 78.3593 29.5473 77.9041C30.2042 78.6108 31.0692 79.0982 32.0214 79.2982ZM27.4128 74.8C27.3905 74.675 27.3734 74.5491 27.3615 74.4227V74H23.9981V87.1257C23.9927 88.6557 22.7293 89.8946 21.1709 89.8946C20.7134 89.8946 20.2815 89.788 19.8989 89.5982C20.4155 90.2645 21.2313 90.6946 22.1495 90.6946C23.7076 90.6946 24.9713 89.4557 24.9769 87.9255V74.8H27.4128ZM22.029 81.8529V81.1082C21.748 81.0704 21.4647 81.0515 21.181 81.0517C17.7672 81.0517 15 83.7712 15 87.1257C15 89.2288 16.0876 91.0822 17.7402 92.1725C16.6503 91.0775 15.9786 89.5788 15.9786 87.9255C15.9786 84.6138 18.6755 81.9209 22.029 81.8529Z" fill="#69C9D0"/>
<rect x="60" y="60" width="48" height="48" rx="24" fill="#222222"/>
<path d="M85.5222 82.7749L91.4785 76H90.0671L84.8952 81.8826L80.7644 76H76L82.2466 84.8955L76 92H77.4115L82.8732 85.7878L87.2356 92H92L85.5218 82.7749H85.5222ZM83.5889 84.9738L82.956 84.0881L77.9201 77.0397H80.0882L84.1522 82.728L84.7851 83.6137L90.0677 91.0075H87.8997L83.5889 84.9742V84.9738Z" fill="white"/>
<defs>
<linearGradient id="paint0_linear_0_74" x1="0" y1="0" x2="0" y2="48" gradientUnits="userSpaceOnUse">
<stop stop-color="#36AFE2"/>
<stop offset="1" stop-color="#1C96C8"/>
</linearGradient>
<radialGradient id="paint1_radial_0_74" cx="0" cy="0" r="1" gradientTransform="matrix(-29.5178 8.32472 -5.99765 -21.2662 226.45 22.4982)" gradientUnits="userSpaceOnUse">
<stop stop-color="#FF005F"/>
<stop offset="1" stop-color="#FC01D8"/>
</radialGradient>
<radialGradient id="paint2_radial_0_74" cx="0" cy="0" r="1" gradientUnits="userSpaceOnUse" gradientTransform="translate(192.75 51.697) rotate(-90) scale(38.3145 40.6509)">
<stop stop-color="#FFCC00"/>
<stop offset="0.1242" stop-color="#FFCC00"/>
<stop offset="0.5672" stop-color="#FE4A05"/>
<stop offset="0.6942" stop-color="#FF0F3F"/>
<stop offset="1" stop-color="#FE0657" stop-opacity="0"/>
</radialGradient>
<radialGradient id="paint3_radial_0_74" cx="0" cy="0" r="1" gradientTransform="matrix(7.95273 -13.7028 17.8395 10.3536 205.213 47.3231)" gradientUnits="userSpaceOnUse">
<stop stop-color="#FFCC00"/>
<stop offset="1" stop-color="#FFCC00" stop-opacity="0"/>
</radialGradient>
<radialGradient id="paint4_radial_0_74" cx="0" cy="0" r="1" gradientTransform="matrix(-29.1938 8.22048 -2.79999 -9.9465 186.513 1.95455)" gradientUnits="userSpaceOnUse">
<stop stop-color="#780CFF"/>
<stop offset="1" stop-color="#820BFF" stop-opacity="0"/>
</radialGradient>
<clipPath id="clip0_0_74">
<rect width="48" height="48" fill="white" transform="translate(180)"/>
</clipPath>
<clipPath id="clip1_0_74">
<rect width="20" height="20" fill="white" transform="translate(254 14)"/>
</clipPath>
</defs>
</svg>
